<?xml version="1.0" encoding="utf-8"?>
<!-- Generator: Adobe Illustrator 27.2.0, SVG Export Plug-In . SVG Version: 6.00 Build 0)  -->
<svg version="1.1" id="Layer_1" xmlns="http://www.w3.org/2000/svg" xmlns:xlink="http://www.w3.org/1999/xlink" x="0px" y="0px"
	 viewBox="0 0 200 200" style="enable-background:new 0 0 200 200;" xml:space="preserve">
<style type="text/css">
	.st0{opacity:0.15;fill:#D8D7E8;enable-background:new    ;}
	.st1{opacity:0.3;fill:#C6D8D9;enable-background:new    ;}
	.st2{fill:url(#SVGID_1_);}
	.st3{fill:url(#SVGID_00000074406492041201774480000006605907338145007269_);}
	.st4{fill:url(#SVGID_00000056392521116602705630000016001498768529787053_);}
	.st5{fill:#104F78;}
	.st6{opacity:0.5;fill:url(#SVGID_00000135651099255547185560000010570189851617310629_);enable-background:new    ;}
	.st7{fill:#BD3692;}
	.st8{opacity:0.5;fill:url(#SVGID_00000094604598918206007180000000450915747162720929_);enable-background:new    ;}
	.st9{fill:url(#SVGID_00000008120067399103049290000008284836144189877676_);}
	.st10{fill:url(#SVGID_00000055670303378587251670000012518241838695833249_);}
	.st11{fill:url(#SVGID_00000167360093562214709930000016581397506971534720_);}
	.st12{opacity:0.3;}
	.st13{opacity:0.2;fill:url(#SVGID_00000043434496786328150470000006835030675040316340_);enable-background:new    ;}
	.st14{fill:#FFFFFF;}
	.st15{opacity:0.78;fill:#FFFFFF;enable-background:new    ;}
	.st16{fill:#4F2C54;}
	.st17{fill:url(#SVGID_00000160168332584712819760000017161111830750430868_);}
	.st18{fill:url(#SVGID_00000028307482390551982840000000768317837317277853_);}
	.st19{fill:url(#SVGID_00000100383359405201144940000016528854736781182889_);}
	.st20{fill:url(#SVGID_00000178910274370421177150000008350255012189594302_);}
	.st21{fill:url(#SVGID_00000155127379769338976060000016384251501523982475_);}
	.st22{fill:url(#SVGID_00000052105697579393743800000009656132971297904018_);}
	.st23{fill:url(#SVGID_00000036218867299500248200000017364052079800957602_);}
	.st24{fill:url(#SVGID_00000179629461069548588500000005192343067198868660_);}
	.st25{fill:url(#SVGID_00000152959590801953519000000010041546249866247336_);}
	.st26{fill:url(#SVGID_00000122709531939042441550000000272939586523849906_);}
	.st27{fill:url(#SVGID_00000005971096663613782670000000330781214605555588_);}
	.st28{fill:url(#SVGID_00000083774778701385335280000016647827950380077731_);}
	.st29{fill:url(#SVGID_00000107559130579870538930000017501710107971094197_);}
	.st30{fill:url(#SVGID_00000181046897317482823270000008288801926596515725_);}
	.st31{fill:url(#SVGID_00000026874882679638381520000013990229572816635296_);}
	.st32{fill:url(#SVGID_00000146468226236573270810000002130632540555832250_);}
	.st33{fill:url(#SVGID_00000041257081510329388880000016612052476002827404_);}
	.st34{fill:url(#SVGID_00000064333511483129597410000006025120723178553746_);}
	.st35{fill:url(#SVGID_00000142884992533749127480000007552183045886995861_);}
	.st36{fill:url(#SVGID_00000110449346187326122460000013689400710050377654_);}
	.st37{fill:url(#SVGID_00000121977349152880855260000013617554019875528611_);}
	.st38{fill:url(#SVGID_00000018203013315195580510000015421930062695838097_);}
	.st39{fill:url(#SVGID_00000064318981947566304510000016746616700044473730_);}
	.st40{fill:url(#SVGID_00000163064255532132198920000003386682254270823856_);}
	.st41{fill:url(#SVGID_00000149360464497545275330000003920173955616107682_);}
	.st42{fill:url(#SVGID_00000090257258103319156850000004963296470429667206_);}
	.st43{fill:url(#SVGID_00000087397070169674915410000009375085996868279195_);}
	.st44{fill:url(#SVGID_00000041282145948610949470000017211581702234926760_);}
	.st45{fill:url(#SVGID_00000151544978959573915300000000545726158977551018_);}
	.st46{fill:url(#SVGID_00000059267786431348411780000000640620639005080227_);}
	.st47{fill:url(#SVGID_00000147907123686114854040000007450982228133362575_);}
	.st48{fill:url(#SVGID_00000034781400914283552890000008173087444336552601_);}
	.st49{fill:#C6D8D9;}
	.st50{fill:url(#SVGID_00000065759084668471194280000007030572429744892033_);}
</style>
<g>
	<path class="st0" d="M185.5,122c0,50.2-30.8,67.9-81.3,67.9s-91.6-40.7-91.6-90.9S78.2,10,128.8,10S185.5,71.8,185.5,122z"/>
	<path class="st1" d="M180.7,102.3c0,47.5-40.2,85.9-89.8,85.9s-83-9.7-83-57.2S70.2,10.4,143,14.3C192.5,17,180.7,54.8,180.7,102.3
		L180.7,102.3z"/>
</g>
<g>
	<g>
		
			<linearGradient id="SVGID_1_" gradientUnits="userSpaceOnUse" x1="213.8282" y1="116.1423" x2="175.3482" y2="85.4823" gradientTransform="matrix(1 0 0 -1 0 202)">
			<stop  offset="0" style="stop-color:#4D8D6E"/>
			<stop  offset="1" style="stop-color:#5FB288"/>
		</linearGradient>
		<path class="st2" d="M175.9,116.8c0.5,0.4,14.3-0.6,20.1,0.6c0,0,4.5-19.7-8.4-20.4c-12.9-0.8-17.4,7.2-17.4,7.2L175.9,116.8
			L175.9,116.8z"/>
		
			<linearGradient id="SVGID_00000090286924479614875130000017945407365548153773_" gradientUnits="userSpaceOnUse" x1="199.4319" y1="115.6385" x2="114.0619" y2="6.6285" gradientTransform="matrix(1 0 0 -1 0 202)">
			<stop  offset="0" style="stop-color:#4D8D6E"/>
			<stop  offset="1" style="stop-color:#5FB288"/>
		</linearGradient>
		<path style="fill:url(#SVGID_00000090286924479614875130000017945407365548153773_);" d="M162.3,96l25.4,0.9c0,0-9.2,0.1-8.2,11.8
			c1,11.7,6.2,45.8-7,45.9s-13.4-6-13.4-6L162.3,96L162.3,96z"/>
		
			<linearGradient id="SVGID_00000034785218794395086740000011032831604140648894_" gradientUnits="userSpaceOnUse" x1="202.8601" y1="112.7198" x2="154.9701" y2="74.2498" gradientTransform="matrix(1 0 0 -1 0 202)">
			<stop  offset="0" style="stop-color:#4D8D6E"/>
			<stop  offset="1" style="stop-color:#5FB288"/>
		</linearGradient>
		<path style="fill:url(#SVGID_00000034785218794395086740000011032831604140648894_);" d="M150.4,90.5l9.8-2.3c0,0,6.6-0.6,7.4,5.2
			c0.9,5.8,0.6,40.4,0.4,47.5s0.4,12.6,4.4,13.7l-29.2,0.5L150.4,90.5L150.4,90.5z"/>
		<g>
			<path class="st5" d="M146.8,155.8c0,0,2.3-31.9,18.4-51.3c0.2-0.2,0.6-0.2,0.7,0.1C167.7,109.5,177.6,141.2,146.8,155.8
				L146.8,155.8z"/>
			
				<linearGradient id="SVGID_00000111882779101782058850000007848836024223660954_" gradientUnits="userSpaceOnUse" x1="147.4772" y1="68.0539" x2="164.58" y2="68.0539" gradientTransform="matrix(1 0 0 -1 0 202)">
				<stop  offset="0" style="stop-color:#B37CFF"/>
				<stop  offset="0.77" style="stop-color:#E88FEC"/>
				<stop  offset="1" style="stop-color:#F895E7"/>
			</linearGradient>
			<path style="opacity:0.5;fill:url(#SVGID_00000111882779101782058850000007848836024223660954_);enable-background:new    ;" d="
				M164.6,113.7c-0.1,1.9-0.4,3.7-0.7,5.5c-0.3,1.8-0.7,3.7-1.1,5.4c-0.9,3.6-2,7.2-3.4,10.6c-0.7,1.7-1.4,3.4-2.2,5.1
				c-0.4,0.8-0.8,1.7-1.3,2.5c-0.4,0.8-0.9,1.6-1.4,2.4c-1.9,3.2-4.1,6.2-6.6,8.9c-0.1,0.1-0.2,0.1-0.3,0c-0.1-0.1-0.1-0.2,0-0.3
				l0,0c2.2-2.9,4.3-6,6-9.2c0.4-0.8,0.9-1.6,1.3-2.4c0.4-0.8,0.8-1.6,1.2-2.5c0.2-0.4,0.4-0.8,0.6-1.2l0.6-1.3
				c0.2-0.4,0.4-0.9,0.5-1.3s0.4-0.9,0.5-1.3c0.3-0.9,0.7-1.7,1-2.6c0.3-0.9,0.6-1.7,0.9-2.6c0.6-1.7,1.1-3.5,1.6-5.3
				c0.5-1.8,1-3.6,1.4-5.3c0.4-1.8,0.8-3.6,1.1-5.4l0,0c0-0.1,0.1-0.2,0.2-0.2C164.5,113.5,164.6,113.6,164.6,113.7L164.6,113.7z"/>
		</g>
		<g>
			<path class="st7" d="M151.6,153.2c0,0,14.2-29.4,32.2-31.3c0.3,0,0.6,0.2,0.6,0.6C183.9,126.2,180.2,145.7,151.6,153.2
				L151.6,153.2z"/>
			
				<linearGradient id="SVGID_00000049187640715431629810000004799637838320915372_" gradientUnits="userSpaceOnUse" x1="152.0157" y1="62.7258" x2="180.4428" y2="62.7258" gradientTransform="matrix(1 0 0 -1 0 202)">
				<stop  offset="0" style="stop-color:#B37CFF"/>
				<stop  offset="0.77" style="stop-color:#E88FEC"/>
				<stop  offset="1" style="stop-color:#F895E7"/>
			</linearGradient>
			<path style="opacity:0.5;fill:url(#SVGID_00000049187640715431629810000004799637838320915372_);enable-background:new    ;" d="
				M180.4,126.6c-1,1.2-2,2.4-3.1,3.6c-0.5,0.6-1.1,1.2-1.6,1.8c-0.5,0.6-1.1,1.2-1.6,1.7c-2.2,2.3-4.5,4.5-6.8,6.7
				c-1.2,1.1-2.4,2.1-3.6,3.2l-1.8,1.5c-0.3,0.2-0.6,0.5-0.9,0.8l-0.9,0.7c-2.5,2-5.1,3.8-7.7,5.6c-0.1,0.1-0.2,0-0.3-0.1
				s0-0.2,0.1-0.3l0,0l1.9-1.4l1-0.7c0.3-0.2,0.6-0.5,0.9-0.7l1.9-1.4c0.6-0.5,1.2-1,1.9-1.5l0.9-0.7l0.9-0.8l1.8-1.5
				c1.2-1.1,2.4-2.1,3.5-3.2c1.2-1.1,2.3-2.2,3.4-3.2l1.7-1.7l1.7-1.7c0.6-0.6,1.1-1.1,1.6-1.7c0.5-0.6,1.1-1.2,1.6-1.7
				c1.1-1.2,2.1-2.3,3.1-3.6l0,0c0.1-0.1,0.2-0.1,0.3,0S180.5,126.5,180.4,126.6L180.4,126.6z"/>
		</g>
		
			<linearGradient id="SVGID_00000044895039890454965090000013729115646959451016_" gradientUnits="userSpaceOnUse" x1="182.9348" y1="133.0041" x2="79.5348" y2="1.144" gradientTransform="matrix(1 0 0 -1 0 202)">
			<stop  offset="0" style="stop-color:#2D5B55"/>
			<stop  offset="1" style="stop-color:#8DC0A1"/>
		</linearGradient>
		<path style="fill:url(#SVGID_00000044895039890454965090000013729115646959451016_);" d="M130.5,91c0,0,17.9,1,29.8-2.8
			c0,0-7.9-0.5-7.9,17.7c0,13.9,2.1,40.6,0.3,45.6c-1.8,5.1-8.6,11.9-18.2,6C124.7,151.7,130.5,91,130.5,91L130.5,91z"/>
		
			<linearGradient id="SVGID_00000054977390457150642420000008474594727866164661_" gradientUnits="userSpaceOnUse" x1="146.7236" y1="118.4969" x2="111.0536" y2="192.6369" gradientTransform="matrix(1 0 0 -1 0 202)">
			<stop  offset="0" style="stop-color:#4D8D6E"/>
			<stop  offset="1" style="stop-color:#5FB288"/>
		</linearGradient>
		<path style="fill:url(#SVGID_00000054977390457150642420000008474594727866164661_);" d="M125.7,63.6c0,0,19.7,2.1,22.2-1.2
			c0,0-2-6-8-5.6S125.7,63.6,125.7,63.6L125.7,63.6z"/>
		
			<linearGradient id="SVGID_00000176766190889005553740000014724720734867956142_" gradientUnits="userSpaceOnUse" x1="132.4458" y1="128.4555" x2="30.1858" y2="-2.4145" gradientTransform="matrix(1 0 0 -1 0 202)">
			<stop  offset="0" style="stop-color:#4D8D6E"/>
			<stop  offset="1" style="stop-color:#5FB288"/>
		</linearGradient>
		<path style="fill:url(#SVGID_00000176766190889005553740000014724720734867956142_);" d="M61.7,70.4c1.7,19.3,5.3,60.2,6.9,80.1
			c0.3,4.4,3.9,7.9,8.3,8.2c15.8,1,51.4,3,65.1,1.1l0,0c-3.1-1.5-5.1-4.7-5.1-8.2l0.7-89.3c0-3.2,3.2-5.4,6.1-4.3
			c1.9,0.7,3.3,2.2,4.2,4.4c-1.3-3.8-3.3-6.5-8-5.6c0,0-45.9,0.5-68.2,1.8C65.7,59,61.1,64.3,61.7,70.4L61.7,70.4z"/>
		<g class="st12">
			
				<linearGradient id="SVGID_00000070082242838723407000000015055648187159167649_" gradientUnits="userSpaceOnUse" x1="128.4464" y1="124.2228" x2="33.3864" y2="2.5728" gradientTransform="matrix(1 0 0 -1 0 202)">
				<stop  offset="0" style="stop-color:#FFFFFF"/>
				<stop  offset="1" style="stop-color:#FFFFFF"/>
			</linearGradient>
			<path style="opacity:0.2;fill:url(#SVGID_00000070082242838723407000000015055648187159167649_);enable-background:new    ;" d="
				M73,61.2l61.7-2.4c-2.6,18.9-1.5,57.2-0.5,95.1c0.1,2.2,1.4,4.3,3.4,5.2l0,0c0,0-41.2,0.5-58.9-0.8c-4.2-0.3-7.6-3.4-8.2-7.6
				c-2.4-16.2-8.2-58.1-7-80.2C63.9,65.4,67.9,61.4,73,61.2L73,61.2z"/>
		</g>
		<g>
			<path class="st14" d="M81.9,70.7L80,70.8c-0.2,0-0.4-0.1-0.4-0.3l-0.1-1.6c0-0.2,0.2-0.3,0.4-0.4l6.3-0.3c0.2,0,0.4,0.1,0.4,0.3
				l0.1,1.6c0,0.2-0.2,0.3-0.4,0.4l-2,0.1l0.4,7.3c0,0.2-0.2,0.3-0.4,0.4l-1.5,0.1c-0.2,0-0.4-0.1-0.4-0.3L81.9,70.7L81.9,70.7z"/>
			<path class="st14" d="M91.8,78c-2.7,0.2-4.5-1.9-4.7-4.8c-0.2-3,1.5-5.3,4.3-5.5c2.8-0.2,4.6,1.9,4.8,4.8
				C96.3,75.6,94.7,77.8,91.8,78C91.8,78,91.8,78,91.8,78z M91.8,75.8c1.3-0.1,1.9-1.4,1.9-3.1s-0.9-2.9-2.2-2.9s-2,1.4-1.9,3.1
				S90.5,75.9,91.8,75.8L91.8,75.8z"/>
			<path class="st14" d="M99.8,67.9c0-0.2,0.1-0.3,0.3-0.3c0.7-0.2,1.7-0.3,2.6-0.3c1.8-0.1,2.8,0.2,3.8,0.8c1,0.7,1.8,1.8,1.9,3.7
				c0.1,2.1-0.5,3.3-1.3,4.1c-1,1-2.5,1.5-4.2,1.6c-1,0.1-1.7,0-2.1,0c-0.2,0-0.3-0.2-0.4-0.3C100.3,77,99.8,67.9,99.8,67.9z
				 M102.5,75.2c0.1,0,0.4,0,0.5,0c1.7-0.1,2.9-1.1,2.8-3.2c-0.1-2-1.3-2.7-2.8-2.6c-0.4,0-0.7,0.1-0.8,0.1L102.5,75.2L102.5,75.2z"
				/>
			<path class="st14" d="M113.9,76.8c-2.7,0.2-4.5-1.9-4.7-4.8c-0.2-3,1.5-5.3,4.3-5.5c2.8-0.2,4.6,1.9,4.8,4.8
				C118.4,74.3,116.8,76.6,113.9,76.8C113.9,76.8,113.9,76.8,113.9,76.8z M113.9,74.6c1.3-0.1,1.9-1.4,1.9-3.1s-0.9-2.9-2.2-2.9
				s-2,1.4-1.9,3.1S112.7,74.7,113.9,74.6L113.9,74.6z"/>
			<path class="st14" d="M120.7,71.9c-0.8,0-1.4-0.6-1.4-1.5c-0.1-0.9,0.4-1.6,1.2-1.6s1.3,0.6,1.4,1.5
				C122,71.1,121.5,71.8,120.7,71.9C120.7,71.9,120.7,71.9,120.7,71.9z M121,76.4c-0.8,0-1.4-0.6-1.4-1.5c-0.1-0.9,0.4-1.6,1.2-1.6
				s1.3,0.6,1.4,1.5C122.3,75.7,121.8,76.4,121,76.4C121,76.4,121,76.4,121,76.4z"/>
		</g>
		<g>
			<path class="st15" d="M72.3,88.1l0.7,6.9c0.1,1.3,1.2,2.2,2.4,2.3l4,0.2c1.4,0.1,2.7-1.1,2.7-2.6v-7.5c0-1.5-1.3-2.7-2.8-2.6
				l-4.8,0.4C73.2,85.4,72.2,86.7,72.3,88.1z"/>
			<path class="st15" d="M86.5,86c6.7-0.2,32.4-1,38.9-1.3c0.8,0,1.5,0.6,1.5,1.4l0,0c0,0.8-0.6,1.4-1.4,1.4l-38.9,1.4
				c-0.8,0-1.4-0.5-1.5-1.3l0-0.2C85,86.8,85.7,86,86.5,86L86.5,86z"/>
			<path class="st15" d="M86.1,95.1L86.1,95.1c0.1,0.2,0.3,0.3,0.5,0.3l26.7-0.6c0.3,0,0.6-0.3,0.6-0.6v-1.8c0-0.3-0.3-0.6-0.6-0.6
				l-26,1C86.2,92.8,85.5,94.1,86.1,95.1L86.1,95.1z"/>
		</g>
		<path class="st16" d="M70.6,86.5l4.8,7.3c0.6,0.9,1.9,0.7,2.3-0.3L81.4,82c0.2-0.7-0.2-1.5-0.9-1.6l-0.8-0.2
			c-0.7-0.1-1.3,0.3-1.5,0.9l-1.5,6.3c-0.3,1.1-1.8,1.3-2.3,0.3l-1.5-2.6c-0.3-0.6-1.1-0.8-1.7-0.5l0,0
			C70.4,85.1,70.2,85.9,70.6,86.5L70.6,86.5z"/>
		<g>
			<path class="st15" d="M72.3,107.3l0.7,6.9c0.1,1.3,1.2,2.2,2.4,2.3l4,0.2c1.4,0.1,2.7-1.1,2.7-2.6v-7.5c0-1.5-1.3-2.7-2.8-2.6
				l-4.8,0.4C73.2,104.6,72.2,105.9,72.3,107.3z"/>
			<path class="st15" d="M86.5,105.2c6.7-0.2,32.4-1,38.9-1.3c0.8,0,1.5,0.6,1.5,1.4l0,0c0,0.8-0.6,1.4-1.4,1.4l-38.9,1.4
				c-0.8,0-1.4-0.5-1.5-1.3l0-0.2C85,106,85.7,105.2,86.5,105.2L86.5,105.2z"/>
			<path class="st15" d="M86.1,114.3L86.1,114.3c0.1,0.2,0.3,0.3,0.5,0.3l26.7-0.6c0.3,0,0.6-0.3,0.6-0.6v-1.8
				c0-0.3-0.3-0.6-0.6-0.6l-26,1C86.2,112,85.5,113.3,86.1,114.3L86.1,114.3z"/>
		</g>
		<g>
			<path class="st15" d="M72.3,126.5l0.7,6.9c0.1,1.3,1.2,2.2,2.4,2.3l4,0.1c1.4,0.1,2.7-1.1,2.7-2.6v-7.5c0-1.5-1.3-2.7-2.8-2.6
				l-4.8,0.4C73.2,123.8,72.2,125.1,72.3,126.5L72.3,126.5z"/>
			<path class="st15" d="M86.5,124.4c6.7-0.2,32.4-1,38.9-1.3c0.8,0,1.5,0.6,1.5,1.4l0,0c0,0.8-0.6,1.4-1.4,1.4l-38.9,1.4
				c-0.8,0-1.4-0.5-1.5-1.3l0-0.2C85,125.1,85.7,124.4,86.5,124.4L86.5,124.4z"/>
			<path class="st15" d="M86.1,133.5L86.1,133.5c0.1,0.2,0.3,0.3,0.5,0.3l26.7-0.6c0.3,0,0.6-0.3,0.6-0.6v-1.8
				c0-0.4-0.3-0.6-0.6-0.6l-26,1C86.2,131.2,85.5,132.5,86.1,133.5L86.1,133.5z"/>
		</g>
		<path class="st16" d="M70.6,105.7l4.8,7.3c0.6,0.9,1.9,0.7,2.3-0.3l3.7-11.5c0.2-0.7-0.2-1.5-0.9-1.6l-0.8-0.2
			c-0.7-0.1-1.3,0.3-1.5,0.9l-1.5,6.3c-0.3,1.1-1.8,1.3-2.3,0.3l-1.5-2.6c-0.3-0.6-1.1-0.8-1.7-0.5l0,0
			C70.4,104.3,70.2,105.1,70.6,105.7L70.6,105.7z"/>
		<path class="st14" d="M150,130.9c-0.2,0-0.3-0.1-0.3-0.3c0,0,0-0.9-0.1-4.2c0-0.2,0.1-0.3,0.3-0.3c0.2,0,0.3,0.1,0.3,0.3
			c0.1,3.3,0.1,4.2,0.1,4.2C150.3,130.7,150.2,130.9,150,130.9L150,130.9L150,130.9z"/>
		<path class="st14" d="M149.8,122.9c-0.2,0-0.3-0.1-0.3-0.3c-0.1-2.1-0.2-4.5-0.3-6.9c-0.1-3.3-0.3-6.8-0.4-10.1
			c-0.2-8.8,1.2-12.2,2.5-13.4c0.7-0.7,1.2-0.7,1.3-0.7c0.2,0,0.3,0.1,0.3,0.3s-0.1,0.3-0.3,0.3c-0.1,0-3.5,0.4-3.2,13.5
			c0.1,3.3,0.2,6.8,0.4,10.1c0.1,2.4,0.2,4.8,0.3,6.9C150.1,122.8,150,123,149.8,122.9L149.8,122.9L149.8,122.9z"/>
		<path class="st14" d="M178.4,122c-0.2,0-0.3-0.1-0.3-0.3c0-0.1-0.5-8-1.3-14.6c-0.9-6.8,2.9-8.3,3-8.3c0.1-0.1,0.3,0,0.4,0.2
			c0.1,0.2,0,0.3-0.2,0.4c-0.1,0.1-3.4,1.4-2.6,7.7c0.9,6.6,1.3,14.6,1.3,14.6C178.7,121.8,178.6,122,178.4,122
			C178.4,122,178.4,122,178.4,122L178.4,122z"/>
	</g>
	<g>
		
			<linearGradient id="SVGID_00000039115059940797549010000003998511257956879031_" gradientUnits="userSpaceOnUse" x1="174.9973" y1="115.1347" x2="160.5873" y2="106.9147" gradientTransform="matrix(1 0 0 -1 0 202)">
			<stop  offset="0" style="stop-color:#F9B776"/>
			<stop  offset="1" style="stop-color:#F47960"/>
		</linearGradient>
		<path style="fill:url(#SVGID_00000039115059940797549010000003998511257956879031_);" d="M172.8,100.3c0,0-9.2-16-10.4-17.5
			c-0.2-0.2-0.5-0.4-0.9-0.3l-2.6,0.3l-3,6.5l5-2.9c-0.5,3.4,5.9,8.5,8.1,10.3c0.2,0.2,0.2,0.5,0,0.7l-0.9,0.9
			c1.4,1.5,3.1,2.4,5,2.8L172.8,100.3L172.8,100.3z"/>
		
			<linearGradient id="SVGID_00000006698859683637594030000018087621215803398069_" gradientUnits="userSpaceOnUse" x1="2990.1228" y1="-548.4293" x2="2989.0127" y2="-565.3893" gradientTransform="matrix(-0.8974 -0.4412 0.4412 -0.8974 3098.4214 922.1879)">
			<stop  offset="0" style="stop-color:#CB236D"/>
			<stop  offset="1" style="stop-color:#4C246D"/>
		</linearGradient>
		<path style="fill:url(#SVGID_00000006698859683637594030000018087621215803398069_);" d="M168.8,97.8c0,0-0.6,0.2-0.8,0.7
			c-0.1,0.2,0,0.5,0.2,0.7c0.9,0.7,4,2.8,5.4,3.2c0.1,0,0.2-0.1,0.2-0.2c-0.1-0.3-0.3-1-1.1-1.9l0.1,0.1c0.1,0.2-0.1,0.3-0.3,0.3
			C171.6,100.1,169.7,98.9,168.8,97.8L168.8,97.8z"/>
		
			<linearGradient id="SVGID_00000095314242411721379450000001898982092992406195_" gradientUnits="userSpaceOnUse" x1="173.5988" y1="113.0819" x2="222.8988" y2="143.9419" gradientTransform="matrix(1 0 0 -1 0 202)">
			<stop  offset="0" style="stop-color:#F9B776"/>
			<stop  offset="1" style="stop-color:#F47960"/>
		</linearGradient>
		<path style="fill:url(#SVGID_00000095314242411721379450000001898982092992406195_);" d="M169.2,104.2c0,0-1.4-3.3-1.4-3.3
			c-1.3-7.7-4.3-14.2-5.2-15.9c-0.1-0.3-0.4-0.5-0.8-0.5l-2.6-0.2L155,90l5.5-1.8c-1.2,3.2,4.1,9.5,5.9,11.8
			c0.2,0.2,0.1,0.6-0.1,0.7l-1.1,0.7c1.1,1.7,2.6,3,4.3,3.8L169.2,104.2L169.2,104.2z"/>
		
			<linearGradient id="SVGID_00000096744182422288874670000006848003517614474683_" gradientUnits="userSpaceOnUse" x1="2893.8577" y1="-821.8872" x2="2892.7576" y2="-838.8472" gradientTransform="matrix(-0.7895 -0.6137 0.6137 -0.7895 2959.78 1226.3284)">
			<stop  offset="0" style="stop-color:#CB236D"/>
			<stop  offset="1" style="stop-color:#4C246D"/>
		</linearGradient>
		<path style="fill:url(#SVGID_00000096744182422288874670000006848003517614474683_);" d="M165.8,101c0,0-0.6,0.1-0.9,0.5
			c-0.1,0.2-0.1,0.5,0.1,0.7c0.8,0.8,3.3,3.5,4.6,4.2c0.1,0.1,0.2,0,0.2-0.1c0-0.3-0.1-1-0.6-2.1l0,0.2c0.1,0.2-0.2,0.3-0.3,0.2
			C168.1,103.8,166.5,102.3,165.8,101L165.8,101z"/>
		<path class="st5" d="M147.3,83c0,0-2.3,3.4-2.5,5s0.6,2.1,3.1,2.3c7.2,0.6,10.8-1.6,10.8-1.6c0.5-3.2,0.8-3.9,5-5.7
			c0,0-5.2,0.4-6.3,0C156.3,82.7,147.3,83,147.3,83L147.3,83z"/>
		<g>
			<path class="st7" d="M153.6,82.6c0,0,2.7-2.6,4-4.3c0.7-0.9,0.9-2.1,0.6-3.2c-0.6-2-1.7-4.2-1.8-4.5c-0.1-0.5-3.2-0.5-3.2-0.5
				s-5.9,3.9-8.3,10.4l2.6,0.8c0,0,1.6-2.6,3.1-4.3c0,0-2.7,3.5-2.8,4.9L153.6,82.6L153.6,82.6z"/>
			
				<linearGradient id="SVGID_00000134218328196595359520000000894670397149399218_" gradientUnits="userSpaceOnUse" x1="2824.5132" y1="127.8805" x2="2823.5432" y2="134.1605" gradientTransform="matrix(-1 0 0 -1 2978.8 202)">
				<stop  offset="0" style="stop-color:#F9B776"/>
				<stop  offset="1" style="stop-color:#F47960"/>
			</linearGradient>
			<path style="fill:url(#SVGID_00000134218328196595359520000000894670397149399218_);" d="M156.8,67.7c0,0.1-0.8,2.7-0.9,2.8
				c-0.1,0.1-1.7,0.1-2.5-0.4l1.6-3.6L156.8,67.7L156.8,67.7z"/>
			
				<linearGradient id="SVGID_00000034081964943899180970000001322245026057900672_" gradientUnits="userSpaceOnUse" x1="2570.2878" y1="-834.9183" x2="2576.6079" y2="-839.2083" gradientTransform="matrix(-0.723 -0.6909 0.6909 -0.723 2594.6018 1239.5247)">
				<stop  offset="0" style="stop-color:#F9B776"/>
				<stop  offset="1" style="stop-color:#F47960"/>
			</linearGradient>
			<path style="fill:url(#SVGID_00000034081964943899180970000001322245026057900672_);" d="M159,64.8c0,0,0.6,1.3-0.1,3.3
				c-0.7,2-1.7,2.1-2.4,1.7s-1.6-1.4-1.7-3.2C154.7,64.8,158.2,63.2,159,64.8z"/>
			
				<linearGradient id="SVGID_00000045598231334280814410000004298980990362921862_" gradientUnits="userSpaceOnUse" x1="2581.438" y1="-826.939" x2="2570.8279" y2="-837.979" gradientTransform="matrix(-0.723 -0.6909 0.6909 -0.723 2594.6018 1239.5247)">
				<stop  offset="0" style="stop-color:#CB236D"/>
				<stop  offset="1" style="stop-color:#4C246D"/>
			</linearGradient>
			<path style="fill:url(#SVGID_00000045598231334280814410000004298980990362921862_);" d="M156.1,66.5c0,0,1.2-2.7,3-1l0.1,0.7
				c0,0,1.7-0.5,1.1-2s-2.6-2.6-4.4-1.6c-1.8,1-2.4,2.2-2.3,3.6s1.1,0.9,1.1,0.9s0.2-1,0.7-1.2c0.5-0.2,0.5,0.6,0.5,0.6L156.1,66.5
				L156.1,66.5z"/>
			
				<linearGradient id="SVGID_00000056419800783151313810000008917054492409424819_" gradientUnits="userSpaceOnUse" x1="2570.665" y1="-834.363" x2="2576.9849" y2="-838.653" gradientTransform="matrix(-0.723 -0.6909 0.6909 -0.723 2594.6018 1239.5247)">
				<stop  offset="0" style="stop-color:#F9B776"/>
				<stop  offset="1" style="stop-color:#F47960"/>
			</linearGradient>
			<path style="fill:url(#SVGID_00000056419800783151313810000008917054492409424819_);" d="M155.7,66.5c0,0,0.6-1.4-0.2-1.4
				s-0.5,1.3-0.3,1.8L155.7,66.5z"/>
			
				<linearGradient id="SVGID_00000132794443424279033090000002097642247062989972_" gradientUnits="userSpaceOnUse" x1="2829.03" y1="119.8762" x2="2843.3838" y2="119.8762" gradientTransform="matrix(-1 0 0 -1 2978.8 202)">
				<stop  offset="0" style="stop-color:#F9B776"/>
				<stop  offset="1" style="stop-color:#F47960"/>
			</linearGradient>
			<path style="fill:url(#SVGID_00000132794443424279033090000002097642247062989972_);" d="M158.7,83.6l-2-2.2l-2.3,0.6
				c0,0-2.7,0.4-4.3,0l-1.6-0.4l-3.5-1.1l-0.6,1.6c-0.1,0.4,0,0.8,0.3,1.1c0.3,0.2,0.7,0.5,0.9,0.6c0.5,0.2,10.7,0.1,10.7,0.1
				L158.7,83.6L158.7,83.6z"/>
			
				<linearGradient id="SVGID_00000015315645613899773860000016721645290366433724_" gradientUnits="userSpaceOnUse" x1="2665.7749" y1="-721.0266" x2="2654.1748" y2="-733.0967" gradientTransform="matrix(-0.7808 -0.6248 0.6248 -0.7808 2680.2688 1156.8136)">
				<stop  offset="0" style="stop-color:#CB236D"/>
				<stop  offset="1" style="stop-color:#4C246D"/>
			</linearGradient>
			<path style="fill:url(#SVGID_00000015315645613899773860000016721645290366433724_);" d="M155.2,63.5c0.5-0.1,0.7-0.7,0.4-1
				c-1.1-1.2-3.1-2.5-6-0.5c-3.2,2.2-5,3.3-5.8,3c-0.5-0.1-1,0.4-0.7,0.9c0.2,0.4,0.6,0.7,1.2,1.1C149.6,69.6,152.3,63.9,155.2,63.5
				L155.2,63.5z"/>
		</g>
		<g>
			
				<linearGradient id="SVGID_00000049904167498127484300000004302354416516279984_" gradientUnits="userSpaceOnUse" x1="2747.7559" y1="-207.6461" x2="2740.2458" y2="-209.6961" gradientTransform="matrix(-0.9988 -4.937277e-02 4.937277e-02 -0.9988 2905.1775 10.2736)">
				<stop  offset="0" style="stop-color:#2B3582"/>
				<stop  offset="1" style="stop-color:#150E42"/>
			</linearGradient>
			<path style="fill:url(#SVGID_00000049904167498127484300000004302354416516279984_);" d="M152,84.4C152,84.4,152,84.4,152,84.4
				h9.3c0.2,0,0.4-0.2,0.4-0.4s-0.2-0.4-0.4-0.4H152c-0.2,0-0.4,0.2-0.4,0.4C151.6,84.2,151.8,84.4,152,84.4L152,84.4z"/>
			
				<linearGradient id="SVGID_00000028298380703999450000000017211871655376893870_" gradientUnits="userSpaceOnUse" x1="2818.2178" y1="124.8827" x2="2812.8977" y2="119.2527" gradientTransform="matrix(-1 0 0 -1 2978.8 202)">
				<stop  offset="0" style="stop-color:#2B3582"/>
				<stop  offset="1" style="stop-color:#150E42"/>
			</linearGradient>
			<path style="fill:url(#SVGID_00000028298380703999450000000017211871655376893870_);" d="M169.7,76H162c-0.6,0-1.1,0.3-1.3,0.8
				l-3.6,7.6h9.6c0.4,0,0.7-0.2,0.8-0.6l2.8-7C170.5,76.4,170.2,76,169.7,76L169.7,76z"/>
			
				<linearGradient id="SVGID_00000021115347530919192510000005828809815059086264_" gradientUnits="userSpaceOnUse" x1="2814.9932" y1="123.4879" x2="2812.5833" y2="119.8479" gradientTransform="matrix(-1 0 0 -1 2978.8 202)">
				<stop  offset="0" style="stop-color:#53D8FF"/>
				<stop  offset="1" style="stop-color:#3840F7"/>
			</linearGradient>
			<path style="fill:url(#SVGID_00000021115347530919192510000005828809815059086264_);" d="M164.2,79.9c-0.2,0.5,0,1,0.3,1.1
				c0.3,0.1,0.7-0.2,0.9-0.8s0-1-0.3-1.1C164.8,79,164.4,79.4,164.2,79.9z"/>
		</g>
	</g>
	<g>
		<g>
			<g>
				
					<linearGradient id="SVGID_00000110456198440021935480000018050213537167166370_" gradientUnits="userSpaceOnUse" x1="32.18" y1="41.1567" x2="40.1958" y2="41.1567" gradientTransform="matrix(1 0 0 -1 0 202)">
					<stop  offset="0" style="stop-color:#53D8FF"/>
					<stop  offset="1" style="stop-color:#3840F7"/>
				</linearGradient>
				<path style="fill:url(#SVGID_00000110456198440021935480000018050213537167166370_);" d="M40,160.5c-1.4,0.1-3.8,0.3-5.6,0.4
					c-1.1,0.1-1.8-0.1-2.2-0.2c0,0,0,0.1,0,0.1c0,0.2,0.2,0.4,0.4,0.4c3.5,0.2,6.4,0.1,7.4,0c0.2,0,0.3-0.2,0.2-0.4
					C40.1,160.6,40,160.5,40,160.5L40,160.5z"/>
				
					<linearGradient id="SVGID_00000008126422382822989130000011751810129394318770_" gradientUnits="userSpaceOnUse" x1="32.1795" y1="42.7189" x2="39.97" y2="42.7189" gradientTransform="matrix(1 0 0 -1 0 202)">
					<stop  offset="0" style="stop-color:#2B3582"/>
					<stop  offset="1" style="stop-color:#150E42"/>
				</linearGradient>
				<path style="fill:url(#SVGID_00000008126422382822989130000011751810129394318770_);" d="M34.3,160.9c1.9-0.1,4.3-0.3,5.6-0.4
					c-1.3-1.7-5.6-2.8-5.6-2.8h-1.2c-0.8,1.2-1,2.3-0.9,3C32.6,160.8,33.2,160.9,34.3,160.9L34.3,160.9z"/>
				
					<linearGradient id="SVGID_00000155838850761188871970000011758947566390607244_" gradientUnits="userSpaceOnUse" x1="32.92" y1="44.9252" x2="35.18" y2="44.9252" gradientTransform="matrix(1 0 0 -1 0 202)">
					<stop  offset="0" style="stop-color:#F9B776"/>
					<stop  offset="1" style="stop-color:#F47960"/>
				</linearGradient>
				<path style="fill:url(#SVGID_00000155838850761188871970000011758947566390607244_);" d="M32.9,155.7L33,158
					c0,0.2,0.2,0.4,0.4,0.5s0.6,0,0.9-0.1c0.2-0.1,0.4-0.2,0.4-0.5l0.4-2.2L32.9,155.7L32.9,155.7z"/>
			</g>
			<g>
				<g>
					
						<linearGradient id="SVGID_00000016760633462111889260000010106763540940734902_" gradientUnits="userSpaceOnUse" x1="16.1994" y1="41.3242" x2="19.2694" y2="41.3242" gradientTransform="matrix(1 0 0 -1 0 202)">
						<stop  offset="0" style="stop-color:#53D8FF"/>
						<stop  offset="1" style="stop-color:#3840F7"/>
					</linearGradient>
					<path style="fill:url(#SVGID_00000016760633462111889260000010106763540940734902_);" d="M17.2,160.8c-0.6-0.1-0.9-0.4-1-0.7
						l0,0c-0.1,0.4,0.1,0.7,0.5,0.9c0.5,0.2,1,0.2,1.4,0.2c0.5,0,0.9-0.2,1.1-0.5l0,0C18.8,160.9,18.2,161,17.2,160.8L17.2,160.8z"
						/>
					
						<linearGradient id="SVGID_00000012462316582550259290000007475474303054409142_" gradientUnits="userSpaceOnUse" x1="16.22" y1="43.6875" x2="20.73" y2="43.6875" gradientTransform="matrix(1 0 0 -1 0 202)">
						<stop  offset="0" style="stop-color:#2B3582"/>
						<stop  offset="1" style="stop-color:#150E42"/>
					</linearGradient>
					<path style="fill:url(#SVGID_00000012462316582550259290000007475474303054409142_);" d="M20,155.7h-1c-1.5,0-2.5,3.2-2.8,4.4
						c0.1,0.3,0.4,0.6,1,0.7c1,0.1,1.6,0.1,2.1-0.1c0.8-1.1,1.2-2.7,1.4-3.6C20.9,156.1,20,155.7,20,155.7L20,155.7z"/>
				</g>
				
					<linearGradient id="SVGID_00000019657278440109355070000007386043488560011196_" gradientUnits="userSpaceOnUse" x1="18.56" y1="46.7956" x2="21.2588" y2="46.7956" gradientTransform="matrix(1 0 0 -1 0 202)">
					<stop  offset="0" style="stop-color:#F9B776"/>
					<stop  offset="1" style="stop-color:#F47960"/>
				</linearGradient>
				<path style="fill:url(#SVGID_00000019657278440109355070000007386043488560011196_);" d="M19.1,153.6l-0.5,2.2
					c-0.1,0.3,0.1,0.6,0.3,0.7c0.3,0.2,0.8,0.3,1.1,0.3c0.2,0,0.4-0.2,0.4-0.3l0.8-2.3L19.1,153.6L19.1,153.6z"/>
			</g>
			<path class="st5" d="M18.5,154.2c0.7,0.6,2.9,0.7,2.9,0.7c8.1-19.4,11.4-22.1,11.4-22.1c-1.2,7.3-0.2,23.5-0.2,23.5
				c1.3,0.6,3,0,3,0c0.1-12,2-22.4,4.1-30.7c-5.5-0.1-8.4-2-9.3-2.7C25.9,130.2,18.5,154.3,18.5,154.2L18.5,154.2z"/>
			
				<linearGradient id="SVGID_00000163792923093671594540000013121483912773405580_" gradientUnits="userSpaceOnUse" x1="52.8331" y1="103.438" x2="-12.3269" y2="46.768" gradientTransform="matrix(1 0 0 -1 0 202)">
				<stop  offset="0" style="stop-color:#3638DB"/>
				<stop  offset="1" style="stop-color:#87A52E"/>
			</linearGradient>
			<path style="fill:url(#SVGID_00000163792923093671594540000013121483912773405580_);" d="M31.9,100.6c-1,5.2-0.7,14.4-0.4,18.6
				c0.1,1.2-1.2,4.3-1.9,5.4c-0.1,0.2,0,0.4,0.1,0.5c1.1,0.6,5.4,0.9,9.8,1.1c0.3,0,0.5-0.2,0.6-0.5c3.3-12.2,7-19.9,7-19.9
				C42.9,99.1,31.9,100.6,31.9,100.6L31.9,100.6z"/>
			
				<linearGradient id="SVGID_00000154384869960422715060000009240336621881521583_" gradientUnits="userSpaceOnUse" x1="27.6737" y1="56.7832" x2="28.9637" y2="59.3732" gradientTransform="matrix(1 0 0 -1 0 202)">
				<stop  offset="0" style="stop-color:#53D8FF"/>
				<stop  offset="1" style="stop-color:#3840F7"/>
			</linearGradient>
			<path style="fill:url(#SVGID_00000154384869960422715060000009240336621881521583_);" d="M33.3,132.3c0,0-0.1,0-0.1,0
				c-0.1-0.1-0.2-0.2-0.1-0.4c0-0.1,1.1-1.8,3.2-2.8c0.1-0.1,0.3,0,0.3,0.1c0.1,0.1,0,0.3-0.1,0.4c-2,0.9-3,2.6-3,2.6
				C33.5,132.3,33.4,132.3,33.3,132.3L33.3,132.3z"/>
			<g>
				
					<linearGradient id="SVGID_00000053544805345703820160000009033994494124871857_" gradientUnits="userSpaceOnUse" x1="30.9276" y1="86.1427" x2="21.3176" y2="77.6327" gradientTransform="matrix(1 0 0 -1 0 202)">
					<stop  offset="0" style="stop-color:#F9B776"/>
					<stop  offset="1" style="stop-color:#F47960"/>
				</linearGradient>
				<path style="fill:url(#SVGID_00000053544805345703820160000009033994494124871857_);" d="M25.4,115.4c0.3,2.4,1.3,5,3.3,7.8
					l0.8-0.6c0,0-0.9-3.5-0.4-7.5C27.8,114.9,26.4,115.1,25.4,115.4L25.4,115.4z"/>
				
					<linearGradient id="SVGID_00000029761382160235139220000002631100007948857766_" gradientUnits="userSpaceOnUse" x1="47.3473" y1="108.8316" x2="-14.2327" y2="55.2616" gradientTransform="matrix(1 0 0 -1 0 202)">
					<stop  offset="0" style="stop-color:#3638DB"/>
					<stop  offset="1" style="stop-color:#87A52E"/>
				</linearGradient>
				<path style="fill:url(#SVGID_00000029761382160235139220000002631100007948857766_);" d="M33,107l-1.1-6.4c0,0-7.7,5.9-6.5,14.8
					c1-0.3,2.4-0.5,3.6-0.3C29.4,112.3,30.4,109.2,33,107L33,107z"/>
			</g>
			<g>
				
					<linearGradient id="SVGID_00000081644091025997979780000004174068450737782416_" gradientUnits="userSpaceOnUse" x1="57.0245" y1="97.7163" x2="-4.5655" y2="44.1463" gradientTransform="matrix(1 0 0 -1 0 202)">
					<stop  offset="0" style="stop-color:#3638DB"/>
					<stop  offset="1" style="stop-color:#87A52E"/>
				</linearGradient>
				<path style="fill:url(#SVGID_00000081644091025997979780000004174068450737782416_);" d="M47.1,105.8l-3,6.4
					c0.5,3.9,2.6,5.6,4.8,6.2c0.1-1.8,0.6-3.2,1-4.2C47.1,111.3,47.1,105.8,47.1,105.8L47.1,105.8z"/>
				
					<linearGradient id="SVGID_00000035519928070686921530000005356145549151553934_" gradientUnits="userSpaceOnUse" x1="48.94" y1="85.3278" x2="56.5" y2="85.3278" gradientTransform="matrix(1 0 0 -1 0 202)">
					<stop  offset="0" style="stop-color:#F9B776"/>
					<stop  offset="1" style="stop-color:#F47960"/>
				</linearGradient>
				<path style="fill:url(#SVGID_00000035519928070686921530000005356145549151553934_);" d="M49.9,114.2c-0.4,1-0.9,2.4-1,4.2
					c6,2.3,7.6-2.2,7.6-2.2l-1.1-0.2C52.9,116.3,51.2,115.5,49.9,114.2z"/>
			</g>
			
				<linearGradient id="SVGID_00000132057837637424187050000013316110646205502395_" gradientUnits="userSpaceOnUse" x1="41.5872" y1="105.55" x2="41.5072" y2="91.42" gradientTransform="matrix(1 0 0 -1 0 202)">
				<stop  offset="0" style="stop-color:#F9B776"/>
				<stop  offset="1" style="stop-color:#F47960"/>
			</linearGradient>
			<path style="fill:url(#SVGID_00000132057837637424187050000013316110646205502395_);" d="M44.4,97.9l-1.4,5.3
				c-0.2,0.6-0.8,0.9-1.4,0.7c-0.6-0.2-1.4-0.6-2.1-0.9c-0.7-0.4-0.9-1.3-0.5-2l3-4.5L44.4,97.9L44.4,97.9z"/>
		</g>
		<g>
			
				<linearGradient id="SVGID_00000115488507591583533530000009978747029414282113_" gradientUnits="userSpaceOnUse" x1="-382.6211" y1="-1747.8866" x2="-389.5711" y2="-1757.0867" gradientTransform="matrix(0.9898 -0.1428 -0.1428 -0.9898 175.2167 -1690.4093)">
				<stop  offset="0" style="stop-color:#F9B776"/>
				<stop  offset="1" style="stop-color:#F47960"/>
			</linearGradient>
			<path style="fill:url(#SVGID_00000115488507591583533530000009978747029414282113_);" d="M47.5,93.9c0,0.1-1.2,6-1.2,6l-3.4-0.8
				l0.3-5.8C43.2,93.4,47.3,92.4,47.5,93.9L47.5,93.9z"/>
			
				<linearGradient id="SVGID_00000183211775833529275000000002481133746155420310_" gradientUnits="userSpaceOnUse" x1="-387.8991" y1="-1750.0443" x2="-379.5854" y2="-1750.0443" gradientTransform="matrix(0.9898 -0.1428 -0.1428 -0.9898 175.2167 -1690.4093)">
				<stop  offset="0" style="stop-color:#2B3582"/>
				<stop  offset="1" style="stop-color:#150E42"/>
			</linearGradient>
			<path style="fill:url(#SVGID_00000183211775833529275000000002481133746155420310_);" d="M44,94.7l-0.4,3c0,0,0,0.1,0,0.1
				c0,0.2,0.2,1.1,1,0.8c0.7-0.2,1.4-0.4,1.9-0.2c0.2,0.1,0.3,0.3,0.3,0.5c-0.1,0.5-0.4,1.8-0.8,2.8c-0.1,0.2-0.3,0.3-0.5,0.2
				c-0.6-0.2-2-0.6-3-1.2c-0.1-0.1-0.2-0.2-0.2-0.4c0-0.8,0.1-3.1,0-3.8c-0.1-0.6-0.8-1-1.2-1.1c-0.1,0-0.2-0.1-0.2-0.2
				c-0.2-0.4-0.4-1.3,0.8-1.6c0.2-0.1,0.3-0.3,0.3-0.6c-0.2-0.5-0.2-1.2,0.6-1.5c0.9-0.4,1.5,0.1,1.9,0.4c0.1,0.2,0.4,0.2,0.5,0.1
				c0.1-0.1,0.2-0.1,0.4,0c0.2,0.1,0.5,0,0.6-0.2c0.2-0.4,0.6-0.9,1.5-0.7c1.5,0.3,1.7,1.9,1.3,2.9c-0.4,1-2,0.6-2.8,0.1
				c-0.6-0.4-1.4,0-1.8,0.2C44.1,94.4,44,94.5,44,94.7L44,94.7z"/>
			
				<linearGradient id="SVGID_00000173874572810060219100000016385905939179586969_" gradientUnits="userSpaceOnUse" x1="-392.7996" y1="-1755.1711" x2="-387.2296" y2="-1749.4412" gradientTransform="matrix(0.9898 -0.1428 -0.1428 -0.9898 175.2167 -1690.4093)">
				<stop  offset="0" style="stop-color:#F9B776"/>
				<stop  offset="1" style="stop-color:#F47960"/>
			</linearGradient>
			<path style="fill:url(#SVGID_00000173874572810060219100000016385905939179586969_);" d="M42.3,97.6c0,0,0.6-1.7,0-2.2
				s-1.6-0.2-1.4,1.1C41.1,98.1,42.2,97.6,42.3,97.6L42.3,97.6z"/>
		</g>
		
			<linearGradient id="SVGID_00000015325830468771602810000001838414609520566972_" gradientUnits="userSpaceOnUse" x1="55.7" y1="86.2219" x2="58.41" y2="86.2219" gradientTransform="matrix(1 0 0 -1 0 202)">
			<stop  offset="0" style="stop-color:#F9B776"/>
			<stop  offset="1" style="stop-color:#F47960"/>
		</linearGradient>
		<path style="fill:url(#SVGID_00000015325830468771602810000001838414609520566972_);" d="M56.1,117.1c0.3,0.2,1.3-0.3,2-0.6
			c0.3-0.2,0.5-0.5,0.3-0.9c-0.2-0.5-0.4-1.1-0.7-1.2C57.1,114.3,54.8,116.1,56.1,117.1L56.1,117.1z"/>
		<g>
			<g>
				<path class="st16" d="M4.7,132.5l56.5-20.1l3,8.3L7.7,141.3c-1.2,0.4-2.5-0.1-3.2-1.1c-0.7-1.1-1.3-2.9-1.3-5.6
					C3.2,133.7,3.8,132.8,4.7,132.5L4.7,132.5z"/>
				<g>
					
						<linearGradient id="SVGID_00000107571948655899620320000002741365695967622020_" gradientUnits="userSpaceOnUse" x1="65.3206" y1="82.6593" x2="76.1106" y2="92.0393" gradientTransform="matrix(1 0 0 -1 0 202)">
						<stop  offset="0" style="stop-color:#2B3582"/>
						<stop  offset="1" style="stop-color:#150E42"/>
					</linearGradient>
					<path style="fill:url(#SVGID_00000107571948655899620320000002741365695967622020_);" d="M78.6,110.2l-7.8,1
						c0,1.1,0.4,2.5,1.6,4.1l6.5-4.3C79.2,110.7,79,110.2,78.6,110.2z"/>
					
						<linearGradient id="SVGID_00000134231055447444630430000002009341122020831656_" gradientUnits="userSpaceOnUse" x1="74.7471" y1="96.4229" x2="34.8071" y2="55.3829" gradientTransform="matrix(1 0 0 -1 0 202)">
						<stop  offset="0" style="stop-color:#FDF53F"/>
						<stop  offset="1" style="stop-color:#D93C65"/>
					</linearGradient>
					<path style="fill:url(#SVGID_00000134231055447444630430000002009341122020831656_);" d="M61.1,112.4c-0.4,5.2,3,8.3,3,8.3
						l8.2-5.4c-1.2-1.6-1.5-3-1.6-4.1C70.8,111.2,61.1,112.4,61.1,112.4z"/>
				</g>
			</g>
			<path class="st49" d="M5.4,135c-0.1,0-0.1,0-0.2-0.1c0-0.1,0-0.2,0.1-0.2l54-19.1c0.1,0,0.2,0,0.2,0.1s0,0.2-0.1,0.2L5.4,135
				C5.4,135,5.4,135,5.4,135L5.4,135z"/>
			<path class="st49" d="M6.3,138.3c-0.1,0-0.1,0-0.2-0.1c0-0.1,0-0.2,0.1-0.2l54-19.1c0.1,0,0.2,0,0.2,0.1s0,0.2-0.1,0.2L6.3,138.3
				C6.4,138.2,6.3,138.2,6.3,138.3L6.3,138.3z"/>
		</g>
		
			<linearGradient id="SVGID_00000150801053443660471650000012335678486406780350_" gradientUnits="userSpaceOnUse" x1="34.7251" y1="81.8442" x2="25.1151" y2="73.3442" gradientTransform="matrix(1 0 0 -1 0 202)">
			<stop  offset="0" style="stop-color:#F9B776"/>
			<stop  offset="1" style="stop-color:#F47960"/>
		</linearGradient>
		<path style="fill:url(#SVGID_00000150801053443660471650000012335678486406780350_);" d="M29.1,122.5l3.5-0.3l1.5,1.4
			c0,0-0.4,0.5-1.5,0.2c-1.1-0.3-2.6-0.3-2.6-0.3s-1.5,0.7-1.6-0.6L29.1,122.5L29.1,122.5z"/>
	</g>
</g>
</svg>
